<mxfile host="app.diagrams.net" modified="2023-12-02T08:25:19.762Z" agent="Mozilla/5.0 (Macintosh; Intel Mac OS X 10_15_7) AppleWebKit/605.1.15 (KHTML, like Gecko) Version/16.4 Safari/605.1.15" etag="hqJm4gXqSGQa9n0bpSRA" version="22.1.5" type="github">
  <diagram name="Page-1" id="09XoDZqaEX02YKwBaaLF">
    <mxGraphModel dx="838" dy="610" grid="1" gridSize="10" guides="1" tooltips="1" connect="1" arrows="1" fold="1" page="1" pageScale="1" pageWidth="827" pageHeight="1169" math="0" shadow="0">
      <root>
        <mxCell id="0" />
        <mxCell id="1" parent="0" />
        <mxCell id="c1m7v9mJdxglak5ZIKt5-1" value="" style="swimlane;startSize=0;fontStyle=0" vertex="1" parent="1">
          <mxGeometry x="210" y="110" width="410" height="1030" as="geometry" />
        </mxCell>
        <mxCell id="c1m7v9mJdxglak5ZIKt5-4" value="&lt;font size=&quot;3&quot;&gt;LOG IN/ REGISTRATION&lt;/font&gt;" style="strokeWidth=2;html=1;shape=mxgraph.flowchart.start_1;whiteSpace=wrap;" vertex="1" parent="c1m7v9mJdxglak5ZIKt5-1">
          <mxGeometry x="100" y="90" width="200" height="80" as="geometry" />
        </mxCell>
        <mxCell id="c1m7v9mJdxglak5ZIKt5-5" value="&lt;font size=&quot;3&quot;&gt;VIEW ITEM&lt;/font&gt;" style="strokeWidth=2;html=1;shape=mxgraph.flowchart.start_1;whiteSpace=wrap;" vertex="1" parent="c1m7v9mJdxglak5ZIKt5-1">
          <mxGeometry x="105" y="220" width="200" height="80" as="geometry" />
        </mxCell>
        <mxCell id="c1m7v9mJdxglak5ZIKt5-6" value="&lt;font size=&quot;3&quot;&gt;ADD TO CART&lt;/font&gt;" style="strokeWidth=2;html=1;shape=mxgraph.flowchart.start_1;whiteSpace=wrap;" vertex="1" parent="c1m7v9mJdxglak5ZIKt5-1">
          <mxGeometry x="110" y="370" width="200" height="80" as="geometry" />
        </mxCell>
        <mxCell id="c1m7v9mJdxglak5ZIKt5-7" value="&lt;font size=&quot;3&quot;&gt;PAYMENT DETAILES&lt;/font&gt;" style="strokeWidth=2;html=1;shape=mxgraph.flowchart.start_1;whiteSpace=wrap;" vertex="1" parent="c1m7v9mJdxglak5ZIKt5-1">
          <mxGeometry x="110" y="510" width="200" height="80" as="geometry" />
        </mxCell>
        <mxCell id="c1m7v9mJdxglak5ZIKt5-8" value="&lt;font size=&quot;3&quot;&gt;ADDRESS DETAILS&lt;/font&gt;" style="strokeWidth=2;html=1;shape=mxgraph.flowchart.start_1;whiteSpace=wrap;" vertex="1" parent="c1m7v9mJdxglak5ZIKt5-1">
          <mxGeometry x="110" y="640" width="200" height="80" as="geometry" />
        </mxCell>
        <mxCell id="c1m7v9mJdxglak5ZIKt5-9" value="&lt;font size=&quot;3&quot;&gt;LOG OUT&lt;/font&gt;" style="strokeWidth=2;html=1;shape=mxgraph.flowchart.start_1;whiteSpace=wrap;" vertex="1" parent="c1m7v9mJdxglak5ZIKt5-1">
          <mxGeometry x="110" y="770" width="200" height="80" as="geometry" />
        </mxCell>
        <mxCell id="c1m7v9mJdxglak5ZIKt5-10" value="&lt;font size=&quot;3&quot;&gt;DEPARTMENTAL STORE&lt;/font&gt;" style="text;html=1;align=center;verticalAlign=middle;resizable=0;points=[];autosize=1;strokeColor=none;fillColor=none;" vertex="1" parent="c1m7v9mJdxglak5ZIKt5-1">
          <mxGeometry x="80" y="30" width="210" height="30" as="geometry" />
        </mxCell>
        <mxCell id="c1m7v9mJdxglak5ZIKt5-20" value="" style="html=1;outlineConnect=0;whiteSpace=wrap;fillColor=#ffff99;verticalLabelPosition=bottom;verticalAlign=top;align=center;shape=mxgraph.archimate3.actor;" vertex="1" parent="1">
          <mxGeometry x="40" y="550" width="70" height="120" as="geometry" />
        </mxCell>
        <mxCell id="c1m7v9mJdxglak5ZIKt5-21" value="&lt;font size=&quot;3&quot;&gt;customer&lt;/font&gt;" style="text;html=1;align=center;verticalAlign=middle;resizable=0;points=[];autosize=1;strokeColor=none;fillColor=none;" vertex="1" parent="1">
          <mxGeometry x="30" y="680" width="90" height="30" as="geometry" />
        </mxCell>
        <mxCell id="c1m7v9mJdxglak5ZIKt5-27" value="" style="endArrow=none;html=1;rounded=0;exitX=1;exitY=0.45;exitDx=0;exitDy=0;exitPerimeter=0;entryX=0;entryY=0.5;entryDx=0;entryDy=0;entryPerimeter=0;" edge="1" parent="1" source="c1m7v9mJdxglak5ZIKt5-20" target="c1m7v9mJdxglak5ZIKt5-8">
          <mxGeometry width="50" height="50" relative="1" as="geometry">
            <mxPoint x="380" y="830" as="sourcePoint" />
            <mxPoint x="430" y="780" as="targetPoint" />
          </mxGeometry>
        </mxCell>
        <mxCell id="c1m7v9mJdxglak5ZIKt5-28" value="" style="endArrow=none;html=1;rounded=0;entryX=1;entryY=0.45;entryDx=0;entryDy=0;entryPerimeter=0;exitX=-0.02;exitY=0.413;exitDx=0;exitDy=0;exitPerimeter=0;" edge="1" parent="1" source="c1m7v9mJdxglak5ZIKt5-9" target="c1m7v9mJdxglak5ZIKt5-20">
          <mxGeometry width="50" height="50" relative="1" as="geometry">
            <mxPoint x="380" y="830" as="sourcePoint" />
            <mxPoint x="430" y="780" as="targetPoint" />
          </mxGeometry>
        </mxCell>
        <mxCell id="c1m7v9mJdxglak5ZIKt5-29" value="" style="endArrow=none;html=1;rounded=0;exitX=1;exitY=0.45;exitDx=0;exitDy=0;exitPerimeter=0;entryX=0.06;entryY=0.3;entryDx=0;entryDy=0;entryPerimeter=0;" edge="1" parent="1" source="c1m7v9mJdxglak5ZIKt5-20" target="c1m7v9mJdxglak5ZIKt5-7">
          <mxGeometry width="50" height="50" relative="1" as="geometry">
            <mxPoint x="380" y="830" as="sourcePoint" />
            <mxPoint x="430" y="780" as="targetPoint" />
          </mxGeometry>
        </mxCell>
        <mxCell id="c1m7v9mJdxglak5ZIKt5-30" value="" style="endArrow=none;html=1;rounded=0;entryX=0;entryY=0.5;entryDx=0;entryDy=0;entryPerimeter=0;" edge="1" parent="1" target="c1m7v9mJdxglak5ZIKt5-6">
          <mxGeometry width="50" height="50" relative="1" as="geometry">
            <mxPoint x="110" y="600" as="sourcePoint" />
            <mxPoint x="430" y="400" as="targetPoint" />
          </mxGeometry>
        </mxCell>
        <mxCell id="c1m7v9mJdxglak5ZIKt5-31" value="" style="endArrow=none;html=1;rounded=0;entryX=-0.02;entryY=0.588;entryDx=0;entryDy=0;entryPerimeter=0;" edge="1" parent="1" target="c1m7v9mJdxglak5ZIKt5-5">
          <mxGeometry width="50" height="50" relative="1" as="geometry">
            <mxPoint x="110" y="600" as="sourcePoint" />
            <mxPoint x="430" y="400" as="targetPoint" />
          </mxGeometry>
        </mxCell>
        <mxCell id="c1m7v9mJdxglak5ZIKt5-32" value="" style="endArrow=none;html=1;rounded=0;entryX=0;entryY=0.5;entryDx=0;entryDy=0;entryPerimeter=0;" edge="1" parent="1" target="c1m7v9mJdxglak5ZIKt5-4">
          <mxGeometry width="50" height="50" relative="1" as="geometry">
            <mxPoint x="110" y="600" as="sourcePoint" />
            <mxPoint x="430" y="400" as="targetPoint" />
          </mxGeometry>
        </mxCell>
        <mxCell id="c1m7v9mJdxglak5ZIKt5-33" value="Actor" style="shape=umlActor;verticalLabelPosition=bottom;verticalAlign=top;html=1;outlineConnect=0;" vertex="1" parent="1">
          <mxGeometry x="750" y="430" width="110" height="170" as="geometry" />
        </mxCell>
        <mxCell id="c1m7v9mJdxglak5ZIKt5-36" value="" style="endArrow=none;html=1;rounded=0;exitX=1;exitY=0.425;exitDx=0;exitDy=0;exitPerimeter=0;entryX=0;entryY=0.3333333333333333;entryDx=0;entryDy=0;entryPerimeter=0;" edge="1" parent="1" source="c1m7v9mJdxglak5ZIKt5-7" target="c1m7v9mJdxglak5ZIKt5-33">
          <mxGeometry width="50" height="50" relative="1" as="geometry">
            <mxPoint x="510" y="560" as="sourcePoint" />
            <mxPoint x="560" y="510" as="targetPoint" />
          </mxGeometry>
        </mxCell>
        <mxCell id="c1m7v9mJdxglak5ZIKt5-37" value="" style="endArrow=none;html=1;rounded=0;entryX=1;entryY=0.5;entryDx=0;entryDy=0;entryPerimeter=0;exitX=0;exitY=0.3333333333333333;exitDx=0;exitDy=0;exitPerimeter=0;" edge="1" parent="1" source="c1m7v9mJdxglak5ZIKt5-33" target="c1m7v9mJdxglak5ZIKt5-8">
          <mxGeometry width="50" height="50" relative="1" as="geometry">
            <mxPoint x="510" y="680" as="sourcePoint" />
            <mxPoint x="560" y="630" as="targetPoint" />
          </mxGeometry>
        </mxCell>
        <mxCell id="c1m7v9mJdxglak5ZIKt5-38" value="" style="endArrow=none;html=1;rounded=0;exitX=1;exitY=0.65;exitDx=0;exitDy=0;exitPerimeter=0;" edge="1" parent="1" source="c1m7v9mJdxglak5ZIKt5-5">
          <mxGeometry width="50" height="50" relative="1" as="geometry">
            <mxPoint x="510" y="680" as="sourcePoint" />
            <mxPoint x="750" y="490" as="targetPoint" />
          </mxGeometry>
        </mxCell>
        <mxCell id="c1m7v9mJdxglak5ZIKt5-41" value="&lt;font size=&quot;3&quot;&gt;admin&lt;/font&gt;" style="text;html=1;align=center;verticalAlign=middle;resizable=0;points=[];autosize=1;strokeColor=none;fillColor=none;" vertex="1" parent="1">
          <mxGeometry x="785" y="640" width="70" height="30" as="geometry" />
        </mxCell>
      </root>
    </mxGraphModel>
  </diagram>
</mxfile>
